<?xml version="1.0" encoding="utf-8"?><svg viewBox="0 0 1991.2 2000" xmlns="http://www.w3.org/2000/svg" xmlns:xlink="http://www.w3.org/1999/xlink"><style>:root>svg{display:none}:root>svg:target{display:block}</style><svg viewBox="0 0 14 10" id="arrow-right" xmlns="http://www.w3.org/2000/svg"><path fill-rule="evenodd" clip-rule="evenodd" d="M0 5a.5.5 0 01.5-.5h11.793L9.146 1.354a.5.5 0 01.708-.708l4 4a.5.5 0 010 .708l-4 4a.5.5 0 01-.708-.708L12.293 5.5H.5A.5.5 0 010 5z"/></svg><svg viewBox="0 0 18 14" id="arrow-right-2" xmlns="http://www.w3.org/2000/svg"><path d="M1 7h16m-6-6l6 6-6 6" fill-rule="evenodd" stroke-linecap="round" stroke-linejoin="round" stroke-width="2"/></svg><svg viewBox="0 0 1792 1792" id="arrow-right-fat" xmlns="http://www.w3.org/2000/svg"><path d="M1600 960q0 54-37 91l-651 651q-39 37-91 37-51 0-90-37l-75-75q-38-38-38-91t38-91l293-293H245q-52 0-84.5-37.5T128 1024V896q0-53 32.5-90.5T245 768h704L656 474q-38-36-38-90t38-90l75-75q38-38 90-38 53 0 91 38l651 651q37 35 37 90z"/></svg><svg viewBox="0 0 48 48" id="bathroom" xmlns="http://www.w3.org/2000/svg"><path d="M44.313 26.344h-37.5V8.766a5.006 5.006 0 011.475-3.563l.04-.04a5.048 5.048 0 015.722-.992 7.725 7.725 0 001.15 9.436l1.07 1.07-1.969 1.968 2.21 2.21 1.968-1.968L29.386 5.98l1.969-1.969-2.21-2.21-1.968 1.969-1.07-1.07a7.723 7.723 0 00-9.856-.876 8.165 8.165 0 00-10.133 1.13l-.04.039a8.11 8.11 0 00-2.39 5.773v17.578H.562v3.125h3.125v2.998c0 .252.041.502.12.74l2.908 8.722a2.34 2.34 0 002.223 1.602h1.26l-1.14 3.907h3.256l1.14-3.907h20.321l1.172 3.907h3.262l-1.172-3.907h2.025a2.34 2.34 0 002.223-1.602l2.907-8.721c.08-.239.12-.49.12-.741v-2.998h3.126v-3.125h-3.126zM17.41 4.91a4.592 4.592 0 016.488 0l1.069 1.07-6.487 6.487-1.07-1.07a4.592 4.592 0 010-6.487zm23.777 27.43L38.5 40.406H9.5L6.813 32.34v-2.871h34.374v2.87z"/></svg><svg viewBox="0 0 20 20" id="box" xmlns="http://www.w3.org/2000/svg"><path d="M18.399 2H1.6c-.332 0-.6.267-.6.6V5h18V2.6a.6.6 0 00-.601-.6zM2 16.6c0 .77.629 1.4 1.399 1.4h13.2c.77 0 1.4-.631 1.4-1.4V6H2v10.6zM7 8h6v2H7V8z"/></svg><svg viewBox="0 0 384 384" id="call" xmlns="http://www.w3.org/2000/svg"><path d="M353.188 252.052c-23.51 0-46.594-3.677-68.469-10.906-10.719-3.656-23.896-.302-30.438 6.417l-43.177 32.594c-50.073-26.729-80.917-57.563-107.281-107.26l31.635-42.052c8.219-8.208 11.167-20.198 7.635-31.448-7.26-21.99-10.948-45.063-10.948-68.583C132.146 13.823 118.323 0 101.333 0h-70.52C13.823 0 0 13.823 0 30.813 0 225.563 158.438 384 353.188 384c16.99 0 30.813-13.823 30.813-30.813v-70.323c-.001-16.989-13.824-30.812-30.813-30.812z"/></svg><svg viewBox="0 0 15 15" id="cart" xmlns="http://www.w3.org/2000/svg"><path d="M0 .5A.5.5 0 01.5 0H2a.5.5 0 01.485.379L2.89 2H14.5a.5.5 0 01.491.592l-1.5 8A.5.5 0 0113 11H4a.5.5 0 01-.491-.408L2.01 2.607 1.61 1H.5A.5.5 0 010 .5zM5 11a2 2 0 100 4 2 2 0 000-4zm7 0a2 2 0 100 4 2 2 0 000-4zm-7 1a1 1 0 110 2 1 1 0 010-2zm7 0a1 1 0 110 2 1 1 0 010-2z"/></svg><svg viewBox="0 0 14 12" id="catalog-btn-icon" xmlns="http://www.w3.org/2000/svg"><path fill-rule="evenodd" clip-rule="evenodd" d="M0 1a1 1 0 011-1h12a1 1 0 110 2H1a1 1 0 01-1-1zm0 5a1 1 0 011-1h6a1 1 0 010 2H1a1 1 0 01-1-1zm0 5a1 1 0 011-1h12a1 1 0 010 2H1a1 1 0 01-1-1z"/></svg><svg viewBox="0 0 18 14" id="check" xmlns="http://www.w3.org/2000/svg"><path d="M1 7l6 6L17 1"/></svg><svg viewBox="0 0 491.996 491.996" id="chevron" xmlns="http://www.w3.org/2000/svg"><path d="M484.132 124.986l-16.116-16.228c-5.072-5.068-11.82-7.86-19.032-7.86-7.208 0-13.964 2.792-19.036 7.86l-183.84 183.848L62.056 108.554c-5.064-5.068-11.82-7.856-19.028-7.856s-13.968 2.788-19.036 7.856l-16.12 16.128c-10.496 10.488-10.496 27.572 0 38.06l219.136 219.924c5.064 5.064 11.812 8.632 19.084 8.632h.084c7.212 0 13.96-3.572 19.024-8.632l218.932-219.328c5.072-5.064 7.856-12.016 7.864-19.224 0-7.212-2.792-14.068-7.864-19.128z"/></svg><svg viewBox="0 0 100 100" id="clock" xmlns="http://www.w3.org/2000/svg"><path d="M50 12c-21 0-38 17-38 38s17 38 38 38 38-17 38-38-17-38-38-38zm2 71.9v-2c0-1.1-.9-2-2-2s-2 .9-2 2v2c-17.2-1-30.9-14.8-31.9-31.9h2c1.1 0 2-.9 2-2s-.9-2-2-2h-2c1-17.2 14.8-30.9 31.9-31.9v2c0 1.1.9 2 2 2s2-.9 2-2v-2c17.2 1 30.9 14.8 31.9 31.9h-2c-1.1 0-2 .9-2 2s.9 2 2 2h2c-1 17.2-14.7 30.9-31.9 31.9zM62 62c-.8.8-2 .8-2.8 0L48.6 51.4c.1.1-.6-.4-.6-1.4V26c0-1.1.9-2 2-2s2 .9 2 2v23.2l10 10c.8.8.8 2 0 2.8z"/><path d="M1504-1070V614H-280v-1684h1784m8-8H-288V622h1800v-1700z"/></svg><svg viewBox="0 0 24 24" id="clock-2" xmlns="http://www.w3.org/2000/svg"><path d="M12 2C6.5 2 2 6.5 2 12s4.5 10 10 10 10-4.5 10-10S17.5 2 12 2zm3 11h-3c-.6 0-1-.4-1-1V7c0-.6.4-1 1-1s1 .4 1 1v4h2c.6 0 1 .4 1 1s-.4 1-1 1z"/></svg><svg viewBox="0 0 16 16" id="close" xmlns="http://www.w3.org/2000/svg"><path d="M9.175 8l6.075-6.075A.833.833 0 0014.075.75L8 6.825 1.925.742A.833.833 0 00.75 1.917L6.825 8 .742 14.075a.834.834 0 101.175 1.175L8 9.175l6.075 6.075a.833.833 0 001.175-1.175L9.175 8z"/></svg><svg viewBox="0 0 32 32" id="delivery" xmlns="http://www.w3.org/2000/svg"><path d="M25 12h-3V9a3 3 0 00-3-3H5a3 3 0 00-3 3v14a1 1 0 001 1h3.18a3 3 0 005.64 0h10.36a3 3 0 005.64 0H29a1 1 0 001-1v-6a5 5 0 00-5-5zM9 24a1 1 0 111-1 1 1 0 01-1 1zm11-2h-8.18a3 3 0 00-5.64 0H4v-3h16zm0-5H4V9a1 1 0 011-1h14a1 1 0 011 1zm5 7a1 1 0 111-1 1 1 0 01-1 1zm3-2h-.18a3 3 0 00-5.64 0H22v-8h1v4a1 1 0 001 1h4zm-3-5v-3a3 3 0 013 3z"/></svg><svg fill-rule="evenodd" stroke-linejoin="round" stroke-miterlimit="2" clip-rule="evenodd" viewBox="0 0 33 33" id="delivery-2" xmlns="http://www.w3.org/2000/svg"><path d="M.463.704h32v32h-32z"/><path d="M6.634 23.704H5.463a3 3 0 01-3-3v-10a3 3 0 013-3h14a3 3 0 013 3v1h1.2c1.284 0 2.519.494 3.449 1.379l2.429 2.314c.589.561.922 1.339.922 2.153v4.376c0 .982-.796 1.778-1.778 1.778h-2.393a3.001 3.001 0 01-5.658 0h-8.342a3.001 3.001 0 01-5.658 0zm2.829-2a1 1 0 110 2 1 1 0 010-2zm14 0a1 1 0 110 2 1 1 0 010-2zm-6-6h-10a1.001 1.001 0 000 2h10a1 1 0 000-2zm0-3h-8a1.001 1.001 0 000 2h8a1 1 0 000-2z"/></svg><svg viewBox="0 0 6.35 6.35" id="discount" xmlns="http://www.w3.org/2000/svg"><path d="M3.164.264a.797.797 0 00-.55.233l-.297.296h-.729a.8.8 0 00-.795.796v.728l-.295.297a.798.798 0 000 1.123l.295.296v.729a.8.8 0 00.795.795h.729l.296.295a.798.798 0 001.123 0l.297-.295h.728a.8.8 0 00.796-.795v-.729l.296-.296a.798.798 0 000-1.123l-.296-.297v-.728A.8.8 0 004.76.793h-.728L3.736.497a.792.792 0 00-.572-.233zm.008.53a.262.262 0 01.19.077l.374.373a.265.265 0 00.188.078h.837c.15 0 .266.117.266.266v.838a.265.265 0 00.079.188l.373.374a.26.26 0 010 .374l-.373.375a.265.265 0 00-.079.187v.838c0 .15-.116.266-.266.266h-.837a.265.265 0 00-.188.076l-.374.375a.26.26 0 01-.374 0l-.375-.375a.265.265 0 00-.187-.076h-.838a.262.262 0 01-.266-.266v-.838a.265.265 0 00-.076-.187L.87 3.362a.26.26 0 010-.374l.375-.374a.265.265 0 00.076-.188v-.838c0-.15.117-.266.266-.266h.838a.265.265 0 00.187-.078l.375-.373a.265.265 0 01.184-.078zm.791 1.32a.265.265 0 00-.182.08L2.193 3.782a.265.265 0 10.375.375l1.588-1.588a.265.265 0 00-.193-.455zm-1.582.003a.265.265 0 00-.264.264.265.265 0 00.264.265.265.265 0 00.265-.265.265.265 0 00-.265-.264zM3.97 3.704a.265.265 0 00-.265.265.265.265 0 00.265.264.265.265 0 00.264-.264.265.265 0 00-.264-.265z" color="#000" font-family="sans-serif" font-weight="400" overflow="visible"/></svg><svg viewBox="0 0 14 4" id="dots" xmlns="http://www.w3.org/2000/svg"><path d="M2 3.5a1.5 1.5 0 110-3 1.5 1.5 0 010 3zm5 0a1.5 1.5 0 110-3 1.5 1.5 0 010 3zm5 0a1.5 1.5 0 110-3 1.5 1.5 0 010 3z"/></svg><svg viewBox="0 0 24 24" id="download" xmlns="http://www.w3.org/2000/svg"><path d="M21 14a1 1 0 00-1 1v4a1 1 0 01-1 1H5a1 1 0 01-1-1v-4a1 1 0 00-2 0v4a3 3 0 003 3h14a3 3 0 003-3v-4a1 1 0 00-1-1zm-9.71 1.71a1 1 0 00.33.21.94.94 0 00.76 0 1 1 0 00.33-.21l4-4a1 1 0 00-1.42-1.42L13 12.59V3a1 1 0 00-2 0v9.59l-2.29-2.3a1 1 0 10-1.42 1.42z"/></svg><svg viewBox="0 0 512 512" id="eye" xmlns="http://www.w3.org/2000/svg"><path d="M256 128c-81.9 0-145.7 48.8-224 128 67.4 67.7 124 128 224 128 99.9 0 173.4-76.4 224-126.6C428.2 198.6 354.8 128 256 128zm0 219.3c-49.4 0-89.6-41-89.6-91.3 0-50.4 40.2-91.3 89.6-91.3s89.6 41 89.6 91.3c0 50.4-40.2 91.3-89.6 91.3z"/><path d="M256 224c0-7.9 2.9-15.1 7.6-20.7-2.5-.4-5-.6-7.6-.6-28.8 0-52.3 23.9-52.3 53.3s23.5 53.3 52.3 53.3 52.3-23.9 52.3-53.3c0-2.3-.2-4.6-.4-6.9-5.5 4.3-12.3 6.9-19.8 6.9-17.8 0-32.1-14.3-32.1-32z"/></svg><svg viewBox="0 0 24 24" id="filter" xmlns="http://www.w3.org/2000/svg"><path fill-rule="evenodd" d="M20 5h-1.17a3.001 3.001 0 00-5.66 0H4a1 1 0 000 2h9.17a3.001 3.001 0 005.66 0H20a1 1 0 100-2zm-4 2a1 1 0 100-2 1 1 0 000 2zM3 12a1 1 0 011-1h1.17a3.001 3.001 0 015.66 0H20a1 1 0 110 2h-9.17a3.001 3.001 0 01-5.66 0H4a1 1 0 01-1-1zm5 1a1 1 0 100-2 1 1 0 000 2zm-4 4a1 1 0 100 2h9.17a3.001 3.001 0 005.66 0H20a1 1 0 100-2h-1.17a3.001 3.001 0 00-5.66 0H4zm13 1a1 1 0 11-2 0 1 1 0 012 0z" clip-rule="evenodd"/></svg><svg viewBox="0 0 24 24" id="gift" xmlns="http://www.w3.org/2000/svg"><g data-name="Layer 2"><path d="M4.64 15.27v4.82a.92.92 0 00.92.91h5.62v-5.73zM12.82 21h5.62a.92.92 0 00.92-.91v-4.82h-6.54zM20.1 7.09h-1.84a2.82 2.82 0 00.29-1.23A2.87 2.87 0 0015.68 3 4.21 4.21 0 0012 5.57 4.21 4.21 0 008.32 3a2.87 2.87 0 00-2.87 2.86 2.82 2.82 0 00.29 1.23H3.9c-.5 0-.9.59-.9 1.31v3.93c0 .72.4 1.31.9 1.31h7.28V7.09h1.64v6.55h7.28c.5 0 .9-.59.9-1.31V8.4c0-.72-.4-1.31-.9-1.31zm-11.78 0a1.23 1.23 0 110-2.45c1.4 0 2.19 1.44 2.58 2.45zm7.36 0H13.1c.39-1 1.18-2.45 2.58-2.45a1.23 1.23 0 110 2.45z" data-name="gift"/></g></svg><svg viewBox="0 0 24 24" id="heart" xmlns="http://www.w3.org/2000/svg"><path d="M20.16 5A6.29 6.29 0 0012 4.36a6.27 6.27 0 00-8.16 9.48l6.21 6.22a2.78 2.78 0 003.9 0l6.21-6.22a6.27 6.27 0 000-8.84zm-1.41 7.46l-6.21 6.21a.76.76 0 01-1.08 0l-6.21-6.24a4.29 4.29 0 010-6 4.27 4.27 0 016 0 1 1 0 001.42 0 4.27 4.27 0 016 0 4.29 4.29 0 01.08 6z"/></svg><svg data-name="Layer 1" viewBox="0 0 24 24" id="instagram" xmlns="http://www.w3.org/2000/svg"><path d="M17.34 5.46a1.2 1.2 0 101.2 1.2 1.2 1.2 0 00-1.2-1.2zm4.6 2.42a7.59 7.59 0 00-.46-2.43 4.94 4.94 0 00-1.16-1.77 4.7 4.7 0 00-1.77-1.15 7.3 7.3 0 00-2.43-.47C15.06 2 14.72 2 12 2s-3.06 0-4.12.06a7.3 7.3 0 00-2.43.47 4.78 4.78 0 00-1.77 1.15 4.7 4.7 0 00-1.15 1.77 7.3 7.3 0 00-.47 2.43C2 8.94 2 9.28 2 12s0 3.06.06 4.12a7.3 7.3 0 00.47 2.43 4.7 4.7 0 001.15 1.77 4.78 4.78 0 001.77 1.15 7.3 7.3 0 002.43.47C8.94 22 9.28 22 12 22s3.06 0 4.12-.06a7.3 7.3 0 002.43-.47 4.7 4.7 0 001.77-1.15 4.85 4.85 0 001.16-1.77 7.59 7.59 0 00.46-2.43c0-1.06.06-1.4.06-4.12s0-3.06-.06-4.12zM20.14 16a5.61 5.61 0 01-.34 1.86 3.06 3.06 0 01-.75 1.15 3.19 3.19 0 01-1.15.75 5.61 5.61 0 01-1.86.34c-1 .05-1.37.06-4 .06s-3 0-4-.06a5.73 5.73 0 01-1.94-.3 3.27 3.27 0 01-1.1-.75 3 3 0 01-.74-1.15 5.54 5.54 0 01-.4-1.9c0-1-.06-1.37-.06-4s0-3 .06-4a5.54 5.54 0 01.35-1.9A3 3 0 015 5a3.14 3.14 0 011.1-.8A5.73 5.73 0 018 3.86c1 0 1.37-.06 4-.06s3 0 4 .06a5.61 5.61 0 011.86.34 3.06 3.06 0 011.19.8 3.06 3.06 0 01.75 1.1 5.61 5.61 0 01.34 1.9c.05 1 .06 1.37.06 4s-.01 3-.06 4zM12 6.87A5.13 5.13 0 1017.14 12 5.12 5.12 0 0012 6.87zm0 8.46A3.33 3.33 0 1115.33 12 3.33 3.33 0 0112 15.33z"/></svg><svg viewBox="0 0 64 64" id="location" xmlns="http://www.w3.org/2000/svg"><path d="M32 55.7l-.9-1.1c-.6-.8-15.9-18.7-15.9-29.4 0-9.3 7.6-16.8 16.8-16.8S48.8 16 48.8 25.2c0 10.7-15.3 28.7-15.9 29.4l-.9 1.1zm0-45c-8 0-14.4 6.5-14.4 14.4 0 8.4 11.1 22.7 14.4 26.8 3.3-4.1 14.4-18.3 14.4-26.8 0-7.9-6.4-14.4-14.4-14.4z"/><path d="M32 31.6c-3.5 0-6.4-2.9-6.4-6.4s2.9-6.4 6.4-6.4 6.4 2.9 6.4 6.4-2.9 6.4-6.4 6.4zm0-10.4c-2.2 0-4 1.8-4 4s1.8 4 4 4 4-1.8 4-4-1.8-4-4-4z"/></svg><svg viewBox="0 0 48 48" id="location-2" xmlns="http://www.w3.org/2000/svg"><path d="M24 4c-7.73 0-14 6.27-14 14 0 10.5 14 26 14 26s14-15.5 14-26c0-7.73-6.27-14-14-14zm0 19c-2.76 0-5-2.24-5-5s2.24-5 5-5 5 2.24 5 5-2.24 5-5 5z"/><path d="M0 0h48v48H0z"/></svg><svg viewBox="0 0 20 16" id="mail" xmlns="http://www.w3.org/2000/svg"><path d="M20 4.608v8.142a3.25 3.25 0 01-3.066 3.245L16.75 16H3.25a3.25 3.25 0 01-3.245-3.066L0 12.75V4.608l9.652 5.056a.75.75 0 00.696 0L20 4.608zM3.25 0h13.5a3.25 3.25 0 013.234 2.924L10 8.154.016 2.924A3.25 3.25 0 013.064.005L3.25 0h13.5-13.5z"/></svg><svg viewBox="0 0 24 24" id="message" xmlns="http://www.w3.org/2000/svg"><g data-name="Layer 2"><g data-name="message-square"><circle cx="12" cy="11" r="1"/><circle cx="16" cy="11" r="1"/><circle cx="8" cy="11" r="1"/><path d="M19 3H5a3 3 0 00-3 3v15a1 1 0 00.51.87A1 1 0 003 22a1 1 0 00.51-.14L8 19.14a1 1 0 01.55-.14H19a3 3 0 003-3V6a3 3 0 00-3-3zm1 13a1 1 0 01-1 1H8.55a3 3 0 00-1.55.43l-3 1.8V6a1 1 0 011-1h14a1 1 0 011 1z"/></g></g></svg><svg viewBox="0 0 24 24" id="phone" xmlns="http://www.w3.org/2000/svg"><path fill-rule="evenodd" d="M12 22c5.523 0 10-4.477 10-10S17.523 2 12 2 2 6.477 2 12s4.477 10 10 10zm3.232-8.639l1.544 1.548c.307.309.297.82-.02 1.14l-.442.432-.01-.009a2.606 2.606 0 01-1.274.52c-.1.011-2.435.23-5.333-2.674-2.097-2.101-2.87-3.65-2.665-5.344.023-.212.075-.422.16-.643.09-.232.212-.448.358-.634l-.012-.012.435-.439c.319-.32.829-.329 1.135-.021l1.545 1.548c.307.308.298.818-.02 1.138l-.258.257-.522.523a10.386 10.386 0 01.084.15l.001.003c.273.493.647 1.167 1.355 1.876.708.71 1.38 1.084 1.872 1.357l.153.086.778-.78c.319-.32.828-.329 1.136-.021z" clip-rule="evenodd"/></svg><svg viewBox="0 0 16 16" id="rocket" xmlns="http://www.w3.org/2000/svg"><path fill-rule="evenodd" d="M12.17 3.83c-.27-.27-.47-.55-.63-.88-.16-.31-.27-.66-.34-1.02-.58.33-1.16.7-1.73 1.13-.58.44-1.14.94-1.69 1.48-.7.7-1.33 1.81-1.78 2.45H3L0 10h3l2-2c-.34.77-1.02 2.98-1 3l1 1c.02.02 2.23-.64 3-1l-2 2v3l3-3v-3c.64-.45 1.75-1.09 2.45-1.78.55-.55 1.05-1.13 1.47-1.7.44-.58.81-1.16 1.14-1.72-.36-.08-.7-.19-1.03-.34a3.39 3.39 0 01-.86-.63M16 0s-.09.38-.3 1.06c-.2.7-.55 1.58-1.06 2.66-.7-.08-1.27-.33-1.66-.72-.39-.39-.63-.94-.7-1.64C13.36.84 14.23.48 14.92.28 15.62.08 16 0 16 0"/></svg><svg viewBox="0 0 512.005 512.005" id="search" xmlns="http://www.w3.org/2000/svg"><path d="M505.749 475.587l-145.6-145.6c28.203-34.837 45.184-79.104 45.184-127.317C405.333 90.926 314.41.003 202.666.003S0 90.925 0 202.669s90.923 202.667 202.667 202.667c48.213 0 92.48-16.981 127.317-45.184l145.6 145.6c4.16 4.16 9.621 6.251 15.083 6.251s10.923-2.091 15.083-6.251c8.341-8.341 8.341-21.824-.001-30.165zM202.667 362.669c-88.235 0-160-71.765-160-160s71.765-160 160-160 160 71.765 160 160-71.766 160-160 160z"/></svg><svg viewBox="0 0 10 9" id="triangle" xmlns="http://www.w3.org/2000/svg"><path d="M4.214 8.541a.903.903 0 001.572 0l4.092-7.169C10.226.762 9.789 0 9.09 0H.91C.212 0-.225.762.123 1.372l4.092 7.17-.001-.001z"/></svg><svg viewBox="0 0 16 16" id="vk" xmlns="http://www.w3.org/2000/svg"><path d="M7.828 12.026h.956s.289-.032.436-.191c.136-.146.131-.42.131-.42s-.019-1.283.577-1.472c.587-.186 1.341 1.24 2.14 1.789.604.415 1.063.324 1.063.324l2.137-.03s1.118-.069.588-.948c-.043-.072-.309-.65-1.589-1.838-1.34-1.244-1.16-1.042.454-3.193.983-1.31 1.376-2.11 1.253-2.452-.117-.326-.84-.24-.84-.24l-2.404.014s-.178-.024-.311.055c-.129.078-.212.258-.212.258s-.381 1.014-.889 1.876c-1.071 1.819-1.5 1.915-1.675 1.802-.407-.263-.305-1.058-.305-1.622 0-1.763.267-2.498-.521-2.688-.262-.063-.454-.105-1.123-.112-.858-.009-1.585.003-1.996.204-.274.134-.485.433-.356.45.159.021.519.097.71.357.247.335.238 1.089.238 1.089s.142 2.075-.331 2.333c-.325.177-.77-.184-1.725-1.835-.489-.845-.859-1.78-.859-1.78s-.071-.174-.198-.267c-.154-.113-.37-.149-.37-.149l-2.286.014s-.343.01-.469.159c-.112.133-.009.407-.009.407s1.79 4.187 3.816 6.298c1.859 1.935 3.969 1.808 3.969 1.808z"/></svg><svg data-name="Layer 2" viewBox="0 0 35 35" id="warranty" xmlns="http://www.w3.org/2000/svg"><path d="M22.33 34.63a10.86 10.86 0 01-3.07-.6 9.32 9.32 0 00-2.25-.5 10.21 10.21 0 00-2.17.35c-1.48.36-3.17.77-4.75.06S7.7 31.7 7 30.35a8.93 8.93 0 00-1.17-1.86A9 9 0 004 27.13c-1.28-.79-2.72-1.69-3.31-3.24S.54 20.7 1 19.27A9.39 9.39 0 001.47 17a9 9 0 00-.35-2.17c-.36-1.48-.77-3.16-.06-4.75A7.21 7.21 0 014.65 7a8.93 8.93 0 001.86-1.18A9.32 9.32 0 007.87 4c.79-1.33 1.69-2.77 3.25-3.36s3.18-.1 4.62.36a9.22 9.22 0 002.25.5 9.59 9.59 0 002.17-.36c1.48-.35 3.17-.76 4.75-.05A7.21 7.21 0 0128 4.65a8.93 8.93 0 001.17 1.86 9 9 0 001.87 1.36c1.28.79 2.72 1.69 3.31 3.24s.1 3.19-.33 4.63a9.32 9.32 0 00-.5 2.25 9 9 0 00.35 2.17c.36 1.48.77 3.16.06 4.75-.71 1.58-2.24 2.39-3.59 3.1a9.3 9.3 0 00-1.87 1.17 9.41 9.41 0 00-1.35 1.87c-.79 1.28-1.69 2.72-3.24 3.31a4.28 4.28 0 01-1.55.27zM16.92 31h.16a11.34 11.34 0 012.9.6A5.34 5.34 0 0023 32c.76-.28 1.36-1.26 2-2.29a11.71 11.71 0 011.77-2.37 11.31 11.31 0 012.41-1.56 5.28 5.28 0 002.48-1.92 5.26 5.26 0 00-.21-3.13 11 11 0 01-.45-2.81 11.34 11.34 0 01.6-2.9A5.34 5.34 0 0032 12c-.29-.76-1.26-1.36-2.29-2a11.71 11.71 0 01-2.37-1.77 11.31 11.31 0 01-1.54-2.41 5.34 5.34 0 00-1.92-2.48 5.32 5.32 0 00-3.13.2 10.06 10.06 0 01-2.83.46A11.5 11.5 0 0115 3.37 5.29 5.29 0 0012 3c-.76.29-1.36 1.26-2 2.29a11.71 11.71 0 01-1.77 2.35A11.31 11.31 0 015.82 9.2a5.34 5.34 0 00-2.48 1.92 5.32 5.32 0 00.2 3.13A10.49 10.49 0 014 17.08 11.5 11.5 0 013.37 20 5.29 5.29 0 003 23c.29.76 1.26 1.36 2.29 2a11.71 11.71 0 012.37 1.77 11.31 11.31 0 011.54 2.41 5.34 5.34 0 001.92 2.48 5.34 5.34 0 003.13-.21 11.52 11.52 0 012.67-.45z"/><path d="M15.6 22.27a1.22 1.22 0 01-.87-.35l-3.6-3.53a1.24 1.24 0 111.74-1.78l2.74 2.68 6.53-6.22a1.25 1.25 0 111.72 1.81l-7.4 7a1.23 1.23 0 01-.86.39z"/></svg><svg viewBox="0 0 737.509 740.824" id="whatsapp" xmlns="http://www.w3.org/2000/svg"><path fill-rule="evenodd" d="M630.056 107.658C560.727 38.271 468.525.039 370.294 0 167.891 0 3.16 164.668 3.079 367.072c-.027 64.699 16.883 127.855 49.016 183.523L0 740.824l194.666-51.047c53.634 29.244 114.022 44.656 175.481 44.682h.151c202.382 0 367.128-164.689 367.21-367.094.039-98.088-38.121-190.32-107.452-259.707m-259.758 564.8h-.125c-54.766-.021-108.483-14.729-155.343-42.529l-11.146-6.613-115.516 30.293 30.834-112.592-7.258-11.543c-30.552-48.58-46.689-104.729-46.665-162.379C65.146 198.865 202.065 62 370.419 62c81.521.031 158.154 31.81 215.779 89.482s89.342 134.332 89.311 215.859c-.07 168.242-136.987 305.117-305.211 305.117m167.415-228.514c-9.176-4.591-54.286-26.782-62.697-29.843-8.41-3.061-14.526-4.591-20.644 4.592-6.116 9.182-23.7 29.843-29.054 35.964-5.351 6.122-10.703 6.888-19.879 2.296-9.175-4.591-38.739-14.276-73.786-45.526-27.275-24.32-45.691-54.36-51.043-63.542-5.352-9.183-.569-14.148 4.024-18.72 4.127-4.11 9.175-10.713 13.763-16.07 4.587-5.356 6.116-9.182 9.174-15.303 3.059-6.122 1.53-11.479-.764-16.07-2.294-4.591-20.643-49.739-28.29-68.104-7.447-17.886-15.012-15.466-20.644-15.746-5.346-.266-11.469-.323-17.585-.323-6.117 0-16.057 2.296-24.468 11.478-8.41 9.183-32.112 31.374-32.112 76.521s32.877 88.763 37.465 94.885c4.587 6.122 64.699 98.771 156.741 138.502 21.891 9.45 38.982 15.093 52.307 19.323 21.981 6.979 41.983 5.994 57.793 3.633 17.628-2.633 54.285-22.19 61.932-43.616 7.646-21.426 7.646-39.791 5.352-43.617-2.293-3.826-8.41-6.122-17.585-10.714" clip-rule="evenodd"/></svg></svg>