<svg width="14" height="10" viewBox="0 0 14 10" fill="none" xmlns="http://www.w3.org/2000/svg">
<path fill-rule="evenodd" clip-rule="evenodd" d="M0 5.00001C0 4.8674 0.0526784 4.74022 0.146447 4.64645C0.240215 4.55268 0.367392 4.50001 0.5 4.50001H12.293L9.146 1.35401C9.05211 1.26012 8.99937 1.13278 8.99937 1.00001C8.99937 0.86723 9.05211 0.739893 9.146 0.646006C9.23989 0.552119 9.36722 0.499374 9.5 0.499374C9.63278 0.499374 9.76011 0.552119 9.854 0.646006L13.854 4.64601C13.9006 4.69245 13.9375 4.74763 13.9627 4.80837C13.9879 4.86912 14.0009 4.93424 14.0009 5.00001C14.0009 5.06577 13.9879 5.13089 13.9627 5.19164C13.9375 5.25238 13.9006 5.30756 13.854 5.35401L9.854 9.35401C9.76011 9.44789 9.63278 9.50064 9.5 9.50064C9.36722 9.50064 9.23989 9.44789 9.146 9.35401C9.05211 9.26012 8.99937 9.13278 8.99937 9.00001C8.99937 8.86723 9.05211 8.73989 9.146 8.64601L12.293 5.50001H0.5C0.367392 5.50001 0.240215 5.44733 0.146447 5.35356C0.0526784 5.25979 0 5.13261 0 5.00001V5.00001Z" fill="black"/>
</svg>
