<svg width="48" height="48" viewBox="0 0 48 48" fill="none" xmlns="http://www.w3.org/2000/svg">
<path d="M44.3125 26.3437H6.8125V8.76563C6.81069 8.10365 6.9402 7.44788 7.19353 6.83629C7.44687 6.22471 7.819 5.66944 8.28838 5.20264L8.32744 5.16358C9.06305 4.42905 10.0075 3.93954 11.0317 3.76192C12.056 3.5843 13.1101 3.72723 14.0501 4.17119C13.1624 5.64716 12.7934 7.37748 13.0018 9.08719C13.2102 10.7969 13.984 12.3879 15.2003 13.6074L16.2697 14.6769L14.3013 16.6454L16.5108 18.855L18.4793 16.8865L29.3864 5.97959L31.3549 4.01114L29.1452 1.80147L27.1767 3.76993L26.1072 2.70049C24.8268 1.42367 23.139 0.636585 21.3379 0.476404C19.5367 0.316223 17.7365 0.793098 16.2509 1.82393C14.6843 0.834588 12.8278 0.407482 10.9864 0.612774C9.14495 0.818067 7.42811 1.64355 6.11787 2.95362L6.07881 2.99268C5.3183 3.74902 4.71537 4.6487 4.3049 5.63962C3.89443 6.63055 3.68458 7.69305 3.6875 8.76563V26.3437H0.5625V29.4687H3.6875V32.4668C3.68743 32.7187 3.72806 32.969 3.80781 33.2079L6.71484 41.9286C6.86998 42.3955 7.16828 42.8016 7.56739 43.0893C7.96649 43.377 8.4461 43.5316 8.93809 43.5312H10.1979L9.05859 47.4375H12.3138L13.4531 43.5312H33.7754L34.9473 47.4375H38.209L37.0371 43.5312H39.0615C39.5536 43.5317 40.0333 43.3771 40.4325 43.0894C40.8316 42.8017 41.13 42.3956 41.2852 41.9286L44.192 33.2079C44.2718 32.969 44.3125 32.7187 44.3125 32.4668V29.4687H47.4375V26.3437H44.3125ZM17.4102 4.91016C18.2711 4.0511 19.4376 3.56864 20.6539 3.56864C21.8701 3.56864 23.0366 4.0511 23.8976 4.91016L24.9668 5.97959L18.4796 12.4668L17.4102 11.3976C16.5511 10.5366 16.0687 9.37006 16.0687 8.15386C16.0687 6.93766 16.5511 5.77112 17.4102 4.91016V4.91016ZM41.1875 32.3398L38.4988 40.4062H9.50117L6.8125 32.3398V29.4687H41.1875V32.3398Z" fill="black"/>
</svg>
